<svg width="25" height="24" viewBox="0 0 25 24" fill="none" xmlns="http://www.w3.org/2000/svg">
<circle cx="12" cy="12" r="7.5" stroke="#31A05D"/>
<path d="M16 12C16 14.1395 15.5111 16.0518 14.7462 17.4117C13.9724 18.7873 12.9818 19.5 12 19.5C11.0182 19.5 10.0276 18.7873 9.25381 17.4117C8.48888 16.0518 8 14.1395 8 12C8 9.86047 8.48888 7.94815 9.25381 6.58828C10.0276 5.21273 11.0182 4.5 12 4.5C12.9818 4.5 13.9724 5.21273 14.7462 6.58828C15.5111 7.94815 16 9.86047 16 12Z" stroke="#31A05D"/>
<path d="M12 5L12 20" stroke="#31A05D"/>
<path d="M5 12H19" stroke="#31A05D"/>
<path d="M5.5 8.5L18.5 8.5" stroke="#31A05D"/>
<path d="M5.5 15.5L18.5 15.5" stroke="#31A05D"/>
<circle cx="19" cy="12" r="6" fill="#1E1A28"/>
<path d="M16 12L18 14" stroke="white" stroke-width="1.5" stroke-linecap="round"/>
<path d="M18 14L22.5735 10" stroke="white" stroke-width="1.5" stroke-linecap="round"/>
</svg>
