<svg clip-rule="evenodd" fill-rule="evenodd" stroke-linejoin="round" stroke-miterlimit="2" viewBox="0 0 100 100" xmlns="http://www.w3.org/2000/svg"><path d="m85.185 67.51c-4.044 0-7.711 1.624-10.387 4.248l-22.721-39.43c7.186-1.011 12.737-7.156 12.737-14.583.001-8.13-6.645-14.745-14.814-14.745s-14.815 6.615-14.815 14.745c0 7.427 5.551 13.572 12.737 14.583l-22.721 39.43c-2.676-2.623-6.343-4.248-10.387-4.248-8.168 0-14.814 6.615-14.814 14.745s6.646 14.745 14.815 14.745 14.815-6.615 14.815-14.745c0-2.22-.51-4.318-1.396-6.208h43.533c-.886 1.89-1.396 3.988-1.396 6.208-.001 8.13 6.645 14.745 14.814 14.745s14.815-6.615 14.815-14.745-6.646-14.745-14.815-14.745zm-44.444-49.765c0-5.081 4.154-9.216 9.259-9.216s9.259 4.134 9.259 9.216-4.154 9.216-9.259 9.216-9.259-4.135-9.259-9.216zm-25.926 73.726c-5.105 0-9.259-4.134-9.259-9.216 0-5.081 4.154-9.216 9.259-9.216s9.259 4.134 9.259 9.216c0 5.081-4.154 9.216-9.259 9.216zm17.321-20.953 17.864-30.253 17.864 30.252h-35.728zm53.049 20.953c-5.105 0-9.259-4.134-9.259-9.216 0-5.081 4.154-9.216 9.259-9.216s9.259 4.134 9.259 9.216c0 5.081-4.154 9.216-9.259 9.216z" fill-rule="nonzero"/></svg>