<svg clip-rule="evenodd" fill-rule="evenodd" stroke-linejoin="round" stroke-miterlimit="2" viewBox="0 0 84 95" xmlns="http://www.w3.org/2000/svg"><g fill-rule="nonzero" transform="translate(-8.5 -2.55)"><path d="m50 52.8c2.3 0 4.6-.9 6.2-2.6l32.8-32.7c3.4-3.4 3.4-9 0-12.4s-9-3.4-12.4 0l-26.6 26.5-26.5-26.5c-3.4-3.4-9-3.4-12.4 0-1.7 1.7-2.6 4-2.6 6.2s.9 4.5 2.6 6.2l32.7 32.7c1.6 1.7 3.9 2.6 6.2 2.6z"/><path d="m56.2 94.9 32.8-32.7c3.4-3.4 3.4-9 0-12.4s-9-3.4-12.4 0l-26.6 26.5-26.5-26.5c-3.4-3.4-9-3.4-12.4 0-1.7 1.7-2.6 4-2.6 6.2s.9 4.5 2.6 6.2l32.7 32.7c1.6 1.6 3.9 2.6 6.2 2.6s4.6-.9 6.2-2.6z"/></g></svg>