<svg clip-rule="evenodd" fill-rule="evenodd" stroke-linejoin="round" stroke-miterlimit="2" viewBox="0 0 95 84" xmlns="http://www.w3.org/2000/svg"><g fill-rule="nonzero" transform="translate(-2.5 -8.5)"><path d="m47.2 50c0 2.3.9 4.6 2.6 6.2l32.7 32.8c3.4 3.4 9 3.4 12.4 0s3.4-9 0-12.4l-26.5-26.6 26.5-26.5c3.4-3.4 3.4-9 0-12.4-1.7-1.7-4-2.6-6.2-2.6s-4.5.9-6.2 2.6l-32.7 32.7c-1.7 1.6-2.6 3.9-2.6 6.2z"/><path d="m5.1 56.2 32.7 32.8c3.4 3.4 9 3.4 12.4 0s3.4-9 0-12.4l-26.5-26.6 26.5-26.5c3.4-3.4 3.4-9 0-12.4-1.7-1.7-4-2.6-6.2-2.6s-4.5.9-6.2 2.6l-32.7 32.7c-1.6 1.6-2.6 3.9-2.6 6.2s.9 4.6 2.6 6.2z"/></g></svg>