<svg clip-rule="evenodd" fill-rule="evenodd" stroke-linejoin="round" stroke-miterlimit="2" viewBox="0 0 95 84" xmlns="http://www.w3.org/2000/svg"><g fill-rule="nonzero" transform="translate(-2.55 -8.45)"><path d="m52.8 50c0-2.3-.9-4.6-2.6-6.2l-32.7-32.8c-3.4-3.4-9-3.4-12.4 0s-3.4 9 0 12.4l26.5 26.6-26.5 26.5c-3.4 3.4-3.4 9 0 12.4 1.7 1.7 4 2.6 6.2 2.6s4.5-.9 6.2-2.6l32.7-32.7c1.7-1.6 2.6-3.9 2.6-6.2z"/><path d="m94.9 43.8-32.7-32.8c-3.4-3.4-9-3.4-12.4 0s-3.4 9 0 12.4l26.5 26.6-26.5 26.5c-3.4 3.4-3.4 9 0 12.4 1.7 1.7 4 2.6 6.2 2.6s4.5-.9 6.2-2.6l32.7-32.7c1.6-1.6 2.6-3.9 2.6-6.2s-.9-4.6-2.6-6.2z"/></g></svg>