<?xml version="1.0" encoding="UTF-8" standalone="no"?>
<!DOCTYPE svg PUBLIC "-//W3C//DTD SVG 1.1//EN" "http://www.w3.org/Graphics/SVG/1.1/DTD/svg11.dtd">
<svg viewBox="0 0 24 24" style="fill: none; height: 24px; stroke: rgba(0, 0, 0, 0.4); stroke-linecap: round; stroke-linejoin: round; stroke-width: 1px; width: 24px;">
  <path d="M19.518,8.288C20.993,9.357,22.331,10.603,23.5,12c0,0-5.148,6.5-11.5,6.5c-1.017-0.006-2.028-0.162-3-0.464 M4.468,15.7C2.998,14.634,1.666,13.392,0.5,12c0,0,5.148-6.5,11.5-6.5c0.844,0.004,1.683,0.113,2.5,0.325 M8,12 c0-2.209,1.791-4,4-4 M16,12c0,2.209-1.791,4-4,4 M21.75,2.25l-19.5,19.5"></path>
</svg>
