<?xml version="1.0" encoding="UTF-8" standalone="no"?>
<!DOCTYPE svg PUBLIC "-//W3C//DTD SVG 1.1//EN" "http://www.w3.org/Graphics/SVG/1.1/DTD/svg11.dtd">
<svg width="100%" height="100%" viewBox="0 0 32 32" version="1.1" xmlns="http://www.w3.org/2000/svg" xmlns:xlink="http://www.w3.org/1999/xlink" xml:space="preserve" xmlns:serif="http://www.serif.com/" style="fill-rule:evenodd;clip-rule:evenodd;">
    <g>
        <clipPath id="_clip1">
            <rect x="0" y="0" width="32" height="32"/>
        </clipPath>
        <g clip-path="url(#_clip1)">
            <g transform="matrix(1.49249,0,0,1.49249,-7.87507,-7.87522)">
                <circle cx="16" cy="16" r="9.917" style="fill:none;stroke:white;stroke-width:1.5px;"/>
            </g>
            <g transform="matrix(1.49249,0,0,1.49249,-7.87507,-7.87522)">
                <path d="M17.333,15.56L17.333,20.44C17.333,20.933 16.933,21.333 16.44,21.333L15.56,21.333C15.067,21.333 14.667,20.933 14.667,20.44L14.667,15.56C14.667,15.067 15.067,14.666 15.56,14.666L16.44,14.666C16.933,14.666 17.333,15.067 17.333,15.56Z" style="fill:white;"/>
            </g>
            <g transform="matrix(1.49249,0,0,1.49249,-7.87507,-7.87522)">
                <path d="M17.333,11.56L17.333,12.44C17.333,12.933 16.933,13.333 16.44,13.333L15.56,13.333C15.067,13.333 14.667,12.933 14.667,12.44L14.667,11.56C14.667,11.067 15.067,10.666 15.56,10.666L16.44,10.666C16.933,10.666 17.333,11.067 17.333,11.56Z" style="fill:white;"/>
            </g>
        </g>
    </g>
</svg>
