<?xml version="1.0" encoding="UTF-8" standalone="no"?>
<!DOCTYPE svg PUBLIC "-//W3C//DTD SVG 1.1//EN" "http://www.w3.org/Graphics/SVG/1.1/DTD/svg11.dtd">
<svg width="100%" height="100%" viewBox="0 0 269 269" version="1.1" xmlns="http://www.w3.org/2000/svg" xmlns:xlink="http://www.w3.org/1999/xlink" xml:space="preserve" xmlns:serif="http://www.serif.com/" style="fill-rule:evenodd;clip-rule:evenodd;stroke-linejoin:round;stroke-miterlimit:2;">
    <g transform="matrix(1,0,0,1,-215.601,-145.602)">
        <path d="M350,145.602C306.832,145.602 271.602,180.832 271.602,224C271.559,226.996 272.719,229.887 274.825,232.023C276.93,234.156 279.801,235.359 282.801,235.359C285.797,235.359 288.672,234.156 290.778,232.023C292.883,229.887 294.044,226.996 294.001,224C294.001,192.938 318.939,168 350.001,168C381.063,168 406.001,192.938 406.001,224C406.001,241.137 399.461,253.387 387.978,266C376.494,278.613 359.974,290.562 342.826,304.852C340.236,307.012 338.755,310.227 338.802,313.602L338.802,347.2C338.759,350.2 339.919,353.087 342.025,355.223C344.13,357.36 347.001,358.559 350.001,358.559C353.001,358.559 355.873,357.36 357.978,355.223C360.084,353.087 361.244,350.2 361.201,347.2L361.201,319.024C376.396,306.598 391.826,294.891 404.428,281.051C418.143,265.985 428.401,247.336 428.401,224C428.401,180.832 393.171,145.602 350.003,145.602L350,145.602ZM350,380.802C340.723,380.802 333.199,388.322 333.199,397.603C333.199,406.88 340.722,414.4 350,414.4C359.278,414.4 366.801,406.881 366.801,397.603C366.801,388.322 359.278,380.802 350,380.802Z" style="fill-rule:nonzero;"/>
    </g>
</svg>
