<svg clip-rule="evenodd" fill-rule="evenodd" stroke-linejoin="round" stroke-miterlimit="2" viewBox="0 0 71 71" xmlns="http://www.w3.org/2000/svg"><path d="m84.73 81.91-17.9-17.91c4.729-5.414 7.337-12.364 7.337-19.553 0-16.303-13.416-29.72-29.72-29.72-16.303 0-29.72 13.417-29.72 29.72 0 16.304 13.417 29.72 29.72 29.72 7.189 0 14.139-2.608 19.553-7.337l17.91 17.9c.375.375.884.586 1.415.586 1.098 0 2.001-.903 2.001-2.001 0-.531-.211-1.04-.586-1.415zm-58.51-19.27c-4.826-4.827-7.54-11.38-7.54-18.206 0-14.126 11.624-25.75 25.75-25.75s25.75 11.624 25.75 25.75c0 6.826-2.714 13.379-7.54 18.206-9.996 9.975-26.424 9.975-36.42 0z" fill-rule="nonzero" transform="translate(-14.7275 -14.7275)"/></svg>