<svg clip-rule="evenodd" fill-rule="evenodd" stroke-linejoin="round" stroke-miterlimit="2" viewBox="0 0 24 24" xmlns="http://www.w3.org/2000/svg"><path d="m28.283 8.403c-.162-.6-.891-.793-1.336-.347l-3.121 3.121-2.432-.595-.811-2.67 2.973-2.971c.226-.226.313-.521.231-.789-.079-.266-.312-.461-.618-.525-.412-.085-.795-.127-1.169-.127-3.584 0-6.5 2.916-6.5 6.5 0 .551.069 1.097.206 1.627l-10.04 10.04c-1.286 1.287-1.286 3.38 0 4.667.623.623 1.452.966 2.334.966s1.711-.343 2.334-.966l10.039-10.04c.529.137 1.075.206 1.627.206 3.584 0 6.5-2.916 6.5-6.5 0-.521-.072-1.057-.217-1.597zm-6.283 7.097c-.555 0-1.102-.083-1.626-.245-.175-.056-.37-.007-.501.124l-10.246 10.247c-.869.868-2.385.868-3.254 0-.896-.897-.896-2.356 0-3.253l10.248-10.247c.131-.131.179-.324.124-.501-.163-.525-.245-1.071-.245-1.625 0-3.033 2.468-5.5 5.5-5.5.178 0 .357.012.548.036l-2.882 2.881c-.131.13-.18.322-.125.499l.98 3.23c.052.169.188.299.358.341l2.979.73c.17.04.35-.008.474-.132l3.068-3.068c.068.333.1.658.1.983 0 3.033-2.468 5.5-5.5 5.5z" fill-rule="nonzero" transform="translate(-4.7015 -3.5)"/></svg>