<?xml version='1.0' encoding='utf-8'?>
<svg xmlns="http://www.w3.org/2000/svg" width="24" height="24" viewBox="0 0 24 24" fill="none">
<g clip-path="url(#clip0_1327_5920)">
<path d="M17.456 19.52H6.55998C6.28759 19.5222 6.01747 19.4703 5.76521 19.3675C5.51294 19.2648 5.28352 19.1131 5.09016 18.9212C4.8968 18.7293 4.74334 18.5011 4.63861 18.2496C4.53389 17.9981 4.47997 17.7284 4.47998 17.456V6.56004C4.47785 6.2863 4.5302 6.01487 4.63397 5.76155C4.73775 5.50823 4.89088 5.27808 5.08445 5.08451C5.27802 4.89094 5.50817 4.73781 5.76149 4.63403C6.01481 4.53026 6.28624 4.47791 6.55998 4.48004H17.472C17.743 4.48214 18.011 4.5376 18.2606 4.64326C18.5102 4.74893 18.7366 4.90272 18.9268 5.09587C19.117 5.28902 19.2672 5.51773 19.369 5.76896C19.4708 6.02018 19.5221 6.28899 19.52 6.56004V17.472C19.5158 18.0167 19.2964 18.5376 18.9098 18.9212C18.5232 19.3048 18.0006 19.5201 17.456 19.52ZM6.55998 5.12004C6.3704 5.11833 6.18238 5.15442 6.0069 5.22618C5.83142 5.29794 5.672 5.40394 5.53794 5.538C5.40388 5.67206 5.29788 5.83148 5.22612 6.00696C5.15435 6.18244 5.11827 6.37046 5.11998 6.56004V17.472C5.12504 17.8494 5.2794 18.2095 5.54927 18.4734C5.81915 18.7372 6.18256 18.8835 6.55998 18.88H17.472C17.8494 18.8792 18.2111 18.7289 18.478 18.462C18.7448 18.1952 18.8951 17.8335 18.896 17.456V6.56004C18.8977 6.37046 18.8616 6.18244 18.7898 6.00696C18.7181 5.83148 18.6121 5.67206 18.478 5.538C18.344 5.40394 18.1845 5.29794 18.0091 5.22618C17.8336 5.15442 17.6456 5.11833 17.456 5.12004H6.55998Z" fill="#D86613" class="cfill" />
<path d="M17.4016 11.12H6.59838C6.51351 11.12 6.43212 11.0863 6.37211 11.0263C6.3121 10.9663 6.27838 10.8849 6.27838 10.8V7.2C6.27838 7.11514 6.3121 7.03374 6.37211 6.97373C6.43212 6.91372 6.51351 6.88 6.59838 6.88H17.4016C17.4865 6.88 17.5678 6.91372 17.6279 6.97373C17.6879 7.03374 17.7216 7.11514 17.7216 7.2V10.8C17.7216 10.8849 17.6879 10.9663 17.6279 11.0263C17.5678 11.0863 17.4865 11.12 17.4016 11.12ZM6.91838 10.48H17.0816V7.52H6.91838V10.48Z" fill="#D86613" class="cfill" />
<path d="M17.4016 17.4208H6.59838C6.51351 17.4208 6.43212 17.3871 6.37211 17.3271C6.3121 17.2671 6.27838 17.1857 6.27838 17.1008V12.6016C6.27838 12.5167 6.3121 12.4354 6.37211 12.3753C6.43212 12.3153 6.51351 12.2816 6.59838 12.2816H17.4016C17.4865 12.2816 17.5678 12.3153 17.6279 12.3753C17.6879 12.4354 17.7216 12.5167 17.7216 12.6016V17.1008C17.7216 17.1857 17.6879 17.2671 17.6279 17.3271C17.5678 17.3871 17.4865 17.4208 17.4016 17.4208ZM6.91838 16.7808H17.0816V12.9216H6.91838V16.7808Z" fill="#D86613" class="cfill" />
<path d="M10.5216 7.20007H9.88159V10.8001H10.5216V7.20007Z" fill="#D86613" class="cfill" />
<path d="M14.1216 7.20007H13.4816V10.8001H14.1216V7.20007Z" fill="#D86613" class="cfill" />
<path d="M10.5216 12.6016H9.88159V17.1008H10.5216V12.6016Z" fill="#D86613" class="cfill" />
<path d="M14.1216 12.6016H13.4816V17.1008H14.1216V12.6016Z" fill="#D86613" class="cfill" />
</g>
<defs>
<clipPath id="clip0_1327_5920">
<rect width="16" height="16" fill="white" transform="translate(4 4)" class="cfill" />
</clipPath>
</defs>
</svg>