<?xml version='1.0' encoding='utf-8'?>
<svg xmlns="http://www.w3.org/2000/svg" width="24" height="24" viewBox="0 0 24 24" fill="none">
<path d="M9 12C9 13.6569 7.65685 15 6 15C4.34315 15 3 13.6569 3 12C3 10.3431 4.34315 9 6 9C7.65685 9 9 10.3431 9 12Z" stroke="#D87D13" class="cstroke" />
<path d="M21.3536 12.3536C21.5488 12.1583 21.5488 11.8417 21.3536 11.6464L18.1716 8.46447C17.9763 8.2692 17.6597 8.2692 17.4645 8.46447C17.2692 8.65973 17.2692 8.97631 17.4645 9.17157L20.2929 12L17.4645 14.8284C17.2692 15.0237 17.2692 15.3403 17.4645 15.5355C17.6597 15.7308 17.9763 15.7308 18.1716 15.5355L21.3536 12.3536ZM21 11.5L9 11.5L9 12.5L21 12.5L21 11.5Z" fill="#D87D13" class="cfill" />
</svg>