<?xml version='1.0' encoding='utf-8'?>
<svg xmlns="http://www.w3.org/2000/svg" width="24" height="24" viewBox="0 0 24 24" fill="none">
<rect x="5.5" y="5.5" width="13" height="13" rx="1.5" stroke="#D87D13" class="cstroke" />
<rect x="12.5" y="13.5" width="4" height="3" rx="0.5" stroke="#D87D13" class="cstroke" />
<path d="M9 10C8.44772 10 8 9.55228 8 9C8 8.44772 8.44772 8 9 8C9.55228 8 10 8.44772 10 9C10 9.55228 9.55228 10 9 10Z" stroke="#D87D13" class="cstroke" />
<path d="M9 15.5L9 10" stroke="#D87D13" class="cstroke" />
<path d="M15.5 13V12C15.5 11.4477 15.0523 11 14.5 11V11C13.9477 11 13.5 11.4477 13.5 12V13" stroke="#D87D13" class="cstroke" />
<path d="M8.5 13.5H10.5V14.5H8.5V13.5Z" fill="#D87D13" class="cfill" />
</svg>