<?xml version='1.0' encoding='utf-8'?>
<svg xmlns="http://www.w3.org/2000/svg" clip-rule="evenodd" fill-rule="evenodd" stroke-linejoin="round" stroke-miterlimit="2" viewBox="0 0 80 80"><linearGradient id="a" gradientTransform="matrix(80 -80 80 80 4 84)" gradientUnits="userSpaceOnUse" x1="0" x2="1" y1="0" y2="0"><stop offset="0" stop-color="#2e27ad" /><stop offset="1" stop-color="#527fff" /></linearGradient><path d="m4 4h80v80h-80z" fill="url(#a)" transform="translate(-4 -4)" class="cfill" /><path d="m32 31.982c-10.019 0-17-3.16-17-5.996v-10.319c3.057 2.608 9.357 4.324 17 4.324s13.943-1.716 17-4.324v10.319c0 2.836-6.981 5.996-17 5.996m0 13.745c-10.019 0-17-3.16-17-5.995v-10.074c3.057 2.609 9.357 4.324 17 4.324s13.943-1.715 17-4.324v10.074c0 2.835-6.981 5.995-17 5.995m0 12.273c-10.019 0-17-3.16-17-5.996v-8.601c3.057 2.609 9.357 4.324 17 4.324s13.943-1.715 17-4.324v8.601c0 2.836-6.981 5.996-17 5.996m0-52c10.019 0 17 3.16 17 5.996 0 2.835-6.981 5.995-17 5.995s-17-3.16-17-5.995c0-2.836 6.981-5.996 17-5.996m0-2c-10.832 0-19 3.438-19 7.996v40.008c0 4.559 8.168 7.996 19 7.996s19-3.437 19-7.996v-40.008c0-4.558-8.168-7.996-19-7.996" fill="#fff" transform="translate(8 8)" class="cfill" /></svg>