<?xml version='1.0' encoding='utf-8'?>
<svg xmlns="http://www.w3.org/2000/svg" width="24" height="24" viewBox="0 0 24 24" fill="none">
<circle cx="12" cy="12" r="8" stroke="#D87D13" class="cstroke" />
<path d="M5.5 7.5L7.93235 7.98647C9.22549 8.2451 9.91873 9.66254 9.32897 10.8421L7.64148 14.217C7.11704 15.2659 7.87975 16.5 9.05243 16.5V16.5C10.3124 16.5 11.0639 17.9042 10.365 18.9525L10 19.5M18.5 7.5L13.794 9.63911C13.2877 9.86924 12.9001 10.2998 12.7242 10.8274L12.4256 11.7232C12.1714 12.4857 12.4337 13.3253 13.0767 13.8075V13.8075C13.6426 14.2319 14.3996 14.3002 15.0322 13.9839L17.5777 12.7111C17.8554 12.5723 18.1616 12.5 18.4721 12.5H20M17 6L14.6325 6.78918C14.2219 6.92603 13.7781 6.92603 13.3675 6.78918L11 6L8 5" stroke="#D87D13" class="cstroke" />
<path d="M13.5 19.5V18C13.5 17.3705 13.7964 16.7777 14.3 16.4L15.0751 15.8187C15.3535 15.6098 15.6817 15.4773 16.027 15.4341L19.5 15" stroke="#D87D13" class="cstroke" />
</svg>