<?xml version='1.0' encoding='utf-8'?>
<svg xmlns="http://www.w3.org/2000/svg" width="24" height="24" viewBox="0 0 24 24" fill="none">
<path d="M6.21433 17.7993H6.71433C6.71433 17.665 6.66027 17.5363 6.56433 17.4422C6.46839 17.3482 6.33864 17.2967 6.20432 17.2994L6.21433 17.7993ZM6.6678 11.5423L6.58623 12.0356C6.71754 12.0573 6.85209 12.0258 6.96008 11.948C7.06807 11.8702 7.14058 11.7526 7.16156 11.6211L6.6678 11.5423ZM17.3323 11.5423L16.8386 11.6211C16.8595 11.7525 16.932 11.8702 17.04 11.948C17.148 12.0258 17.2826 12.0573 17.4139 12.0356L17.3323 11.5423ZM17.7857 17.7993L17.7957 17.2994C17.6614 17.2967 17.5317 17.3482 17.4357 17.4422C17.3398 17.5363 17.2857 17.665 17.2857 17.7993H17.7857ZM17.7857 17.7999L17.7857 18.2999C18.0619 18.2999 18.2857 18.0761 18.2857 17.7999H17.7857ZM12.0047 17.8L12.0047 18.3L12.0047 18.3L12.0047 17.8ZM11.9955 17.8L11.9955 17.3L11.9955 17.3L11.9955 17.8ZM6.21433 17.8H5.71433C5.71433 17.9326 5.76701 18.0598 5.86078 18.1535C5.95455 18.2473 6.08173 18.3 6.21434 18.3L6.21433 17.8ZM6.20432 17.2994C6.18629 17.2998 6.1682 17.3 6.15005 17.3V18.3C6.17486 18.3 6.19963 18.2997 6.22435 18.2992L6.20432 17.2994ZM6.15005 17.3C4.6865 17.3 3.50006 16.1135 3.50006 14.65H2.50006C2.50006 16.6658 4.13422 18.3 6.15005 18.3V17.3ZM3.50006 14.65C3.50006 13.1864 4.6865 12 6.15005 12V11C4.13422 11 2.50006 12.6341 2.50006 14.65H3.50006ZM6.15005 12C6.29896 12 6.44463 12.0122 6.58623 12.0356L6.74938 11.049C6.55408 11.0167 6.35383 11 6.15005 11V12ZM7.16156 11.6211C7.53434 9.2852 9.55919 7.5 12.0001 7.5V6.5C9.06001 6.5 6.62306 8.64998 6.17405 11.4635L7.16156 11.6211ZM12.0001 7.5C14.4409 7.5 16.4658 9.2852 16.8386 11.6211L17.8261 11.4635C17.377 8.64998 14.9401 6.5 12.0001 6.5V7.5ZM17.4139 12.0356C17.5554 12.0122 17.7011 12 17.85 12V11C17.6462 11 17.446 11.0167 17.2507 11.049L17.4139 12.0356ZM17.85 12C19.3135 12 20.5 13.1864 20.5 14.65H21.5C21.5 12.6341 19.8658 11 17.85 11V12ZM20.5 14.65C20.5 16.1135 19.3135 17.3 17.85 17.3V18.3C19.8658 18.3 21.5 16.6658 21.5 14.65H20.5ZM17.85 17.3C17.8319 17.3 17.8138 17.2998 17.7957 17.2994L17.7757 18.2992C17.8004 18.2997 17.8252 18.3 17.85 18.3V17.3ZM17.2857 17.7993V17.7999H18.2857V17.7993H17.2857ZM17.7857 17.2999L12.0047 17.3L12.0047 18.3L17.7857 18.2999L17.7857 17.2999ZM12.0047 17.3C12.0037 17.3 12.0028 17.3 12.002 17.3C12.0013 17.3 12.0006 17.3 12.0001 17.3V18.3C12.001 18.3 12.0019 18.3 12.0027 18.3C12.0035 18.3 12.0041 18.3 12.0047 18.3V17.3ZM12.0001 17.3C11.9995 17.3 11.9989 17.3 11.9981 17.3C11.9973 17.3 11.9964 17.3 11.9955 17.3V18.3C11.9961 18.3 11.9967 18.3 11.9975 18.3C11.9982 18.3 11.9991 18.3 12.0001 18.3V17.3ZM11.9955 17.3L6.21433 17.3L6.21434 18.3L11.9955 18.3L11.9955 17.3ZM6.71433 17.8V17.7993H5.71433V17.8H6.71433Z" fill="#D87D13" class="cfill" />
<path d="M8.40083 15.3498L9.13439 12.8861H9.84871L8.7644 16H8.2939L8.40083 15.3498ZM7.72501 12.8861L8.45644 15.3498L8.56765 16H8.09286L7.01497 12.8861H7.72501ZM11.9216 14.89H11.1282V14.3896H11.9216C12.0442 14.3896 12.144 14.3696 12.221 14.3297C12.298 14.2883 12.3543 14.2313 12.39 14.1586C12.4256 14.0859 12.4434 14.0039 12.4434 13.9127C12.4434 13.82 12.4256 13.7337 12.39 13.6539C12.3543 13.574 12.298 13.5099 12.221 13.4614C12.144 13.4129 12.0442 13.3887 11.9216 13.3887H11.3506V16H10.709V12.8861H11.9216C12.1654 12.8861 12.3743 12.9303 12.5482 13.0187C12.7236 13.1057 12.8576 13.2261 12.9503 13.3801C13.043 13.5341 13.0893 13.7102 13.0893 13.9084C13.0893 14.1094 13.043 14.2834 12.9503 14.4302C12.8576 14.5771 12.7236 14.6904 12.5482 14.7703C12.3743 14.8501 12.1654 14.89 11.9216 14.89ZM15.8189 14.967H16.4583C16.4455 15.1766 16.3877 15.3627 16.2851 15.5252C16.1839 15.6878 16.042 15.8146 15.8595 15.9059C15.6784 15.9971 15.4603 16.0428 15.2051 16.0428C15.0054 16.0428 14.8265 16.0086 14.6683 15.9401C14.51 15.8703 14.3745 15.7704 14.2619 15.6407C14.1507 15.511 14.0659 15.3541 14.0074 15.1702C13.9489 14.9863 13.9197 14.7802 13.9197 14.5521V14.3361C13.9197 14.108 13.9497 13.902 14.0095 13.718C14.0708 13.5327 14.1578 13.3751 14.2705 13.2454C14.3845 13.1156 14.5207 13.0158 14.6789 12.946C14.8372 12.8761 15.014 12.8412 15.2093 12.8412C15.4688 12.8412 15.6877 12.8882 15.8659 12.9823C16.0456 13.0764 16.1846 13.2062 16.2829 13.3716C16.3828 13.537 16.4426 13.7252 16.4626 13.9362H15.821C15.8139 13.8107 15.7889 13.7045 15.7461 13.6175C15.7034 13.5291 15.6385 13.4628 15.5515 13.4186C15.466 13.373 15.3519 13.3502 15.2093 13.3502C15.1024 13.3502 15.009 13.3701 14.9292 13.4101C14.8493 13.45 14.7823 13.5106 14.7281 13.5919C14.674 13.6731 14.6333 13.7758 14.6062 13.8998C14.5806 14.0224 14.5677 14.1664 14.5677 14.3318V14.5521C14.5677 14.7132 14.5799 14.8551 14.6041 14.9777C14.6283 15.0989 14.6654 15.2016 14.7153 15.2857C14.7666 15.3684 14.8322 15.4311 14.9121 15.4739C14.9933 15.5152 15.091 15.5359 15.2051 15.5359C15.3391 15.5359 15.4496 15.5145 15.5366 15.4717C15.6235 15.429 15.6898 15.3655 15.7354 15.2814C15.7825 15.1973 15.8103 15.0925 15.8189 14.967Z" fill="#D87D13" class="cfill" />
</svg>