<svg clip-rule="evenodd" fill-rule="evenodd" stroke-linejoin="round" stroke-miterlimit="2" viewBox="0 0 1141 1141" xmlns="http://www.w3.org/2000/svg"><path d="m-1532.24 343.583c-22.16-3.094-65.95-13.846-93.12-22.87-32.13-10.669-74.52-29.67-104.38-46.787-11.33-6.496-50.93-32.43-57.81-37.861l-2.81-2.22 49.16-49.155 49.17-49.155 12.4 8.03c43.78 28.363 99.21 50.937 149.58 60.919l7.19 1.424v138.573l-2.81-.187c-1.55-.103-4.5-.423-6.57-.711zm169.38 1.133v-138.808l7.19-1.424c49.33-9.777 105.39-32.415 147.54-59.578 5.69-3.671 10.76-6.675 11.25-6.675 1.98 0 98.04 97.303 97.28 98.533-1.26 2.033-42.34 29.106-56.39 37.162-29.85 17.117-72.24 36.118-104.37 46.787-28.95 9.61-72.4 20.095-95.94 23.151zm328.96-270.618-49.16-49.2 8.03-12.396c28.36-43.783 50.94-99.213 60.92-149.583l1.42-7.188h139.98l-.825 5.938c-3.436 24.719-13.644 66.845-23.096 95.312-10.669 32.131-29.669 74.519-46.787 104.375-7.271 12.682-33.207 52.119-38.453 58.471l-2.867 3.471zm-875.09 38.672c-31.62-42.793-62.59-103.027-80.11-155.789-9.45-28.467-19.66-70.593-23.09-95.312l-.83-5.938h139.98l1.42 7.188c9.78 49.336 32.42 105.399 59.58 147.543 3.67 5.696 6.68 10.761 6.68 11.256 0 1.171-96.61 97.763-97.78 97.763-.49 0-3.13-3.02-5.85-6.711zm-103.3-424.226c2.71-22.551 13.4-67.059 23.19-96.563 10.67-32.131 29.68-74.519 46.79-104.375 8.06-14.051 35.13-55.128 37.16-56.384 1.23-.76 99.79 96.547 99.79 98.522 0 .495-3.01 5.56-6.68 11.256-27.16 42.144-49.8 98.207-59.58 147.544l-1.42 7.187h-140.11zm998.18 0c-9.98-50.37-32.56-105.801-60.92-149.584l-8.03-12.396 99.561-99.584 2.22 2.813c5.431 6.882 31.365 46.483 37.861 57.813 17.118 29.856 36.118 72.244 46.787 104.375 9.796 29.504 20.487 74.012 23.194 96.563l.862 7.187h-140.115zm-727.95-322.635-49.81-49.822 10.44-7.518c67.74-48.773 144.84-82.614 224.19-98.393 11.69-2.325 24.2-4.609 27.82-5.078l6.56-.852v141.308l-7.19 1.424c-50.3 9.967-105.81 32.561-149.43 60.821-6.74 4.363-12.36 7.932-12.51 7.932-.14 0-22.67-22.42-50.07-49.822z" fill-rule="nonzero" transform="translate(2013.15 795.819)"/></svg>