<svg width="96" height="84" viewBox="0 0 96 84" fill="none" xmlns="http://www.w3.org/2000/svg">
<path d="M24.8828 4.47953C24.8828 2.55784 26.4407 1 28.3624 1H34.8469H38.8122H55.1819H59.2488H66.1401C68.0618 1 69.6197 2.55784 69.6197 4.47953L69.6197 33.5205C69.6197 35.4422 68.0618 37 66.1401 37H59.2488H55.1819H38.8122H34.8469H28.3623C26.4407 37 24.8828 35.4422 24.8828 33.5205L24.8828 4.47953Z" stroke="white" stroke-width="1.5"/>
<path d="M25 8L69 8" stroke="white"/>
<path d="M63 5C63 4.44772 63.4477 4 64 4C64.5523 4 65 4.44772 65 5C65 5.55228 64.5523 6 64 6C63.4477 6 63 5.55228 63 5Z" fill="white"/>
<path d="M58 5C58 4.44772 58.4477 4 59 4C59.5523 4 60 4.44772 60 5C60 5.55228 59.5523 6 59 6C58.4477 6 58 5.55228 58 5Z" fill="white"/>
<path d="M53 5C53 4.44772 53.4477 4 54 4C54.5523 4 55 4.44772 55 5C55 5.55228 54.5523 6 54 6C53.4477 6 53 5.55228 53 5Z" fill="white"/>
<path d="M31 12L33 14L31 16" stroke="white" stroke-linecap="round" stroke-linejoin="round"/>
<path d="M35 16H38" stroke="white" stroke-linecap="round" stroke-linejoin="round"/>
<path d="M18.65 70.5162C19.1568 70.1526 19.7648 69.957 20.3885 69.957H75.6116C76.2353 69.957 76.8434 70.1526 77.3502 70.5162L88.4359 78.4694C90.7908 80.1589 89.5956 83.8752 86.6973 83.8752H9.3028C6.40452 83.8752 5.2093 80.1589 7.56423 78.4694L18.65 70.5162Z" fill="#534E7B"/>
<rect x="16.4326" y="29.6953" width="62.1345" height="39.7661" rx="3.97661" fill="url(#paint0_linear_3152_15657)" fill-opacity="0.9"/>
<rect x="16.9326" y="30.1953" width="61.1345" height="38.7661" rx="3.47661" stroke="#8B6AFF"/>
<path d="M18.816 72.9354C19.8317 71.9724 21.1782 71.4355 22.5779 71.4355H73.5129C74.8616 71.4355 76.1627 71.934 77.1662 72.8351L78.382 73.9269C79.0603 74.536 78.6294 75.6607 77.7177 75.6607H18.435C17.5364 75.6607 17.0989 74.5633 17.751 73.9451L18.816 72.9354Z" fill="#242133"/>
<line x1="47.2515" y1="43.1152" x2="47.2515" y2="56.0392" stroke="white" stroke-width="1.9883"/>
<path d="M41.7837 52.0625L47.2515 57.5303L52.7194 52.0625" stroke="white" stroke-width="1.9883"/>
<defs>
<linearGradient id="paint0_linear_3152_15657" x1="37.5583" y1="49.5784" x2="-17" y2="-1.62304" gradientUnits="userSpaceOnUse">
<stop stop-color="#1F1C2D"/>
<stop offset="1" stop-color="#71669E"/>
</linearGradient>
</defs>
</svg>
