<svg clip-rule="evenodd" fill-rule="evenodd" stroke-linejoin="round" stroke-miterlimit="2" viewBox="0 0 60 60" xmlns="http://www.w3.org/2000/svg"><path d="m60 66c0 5.486 4.514 9.999 10 9.999s10-4.514 10-10c0-4.355-2.845-8.232-7-9.539v-19.3c-.02-5.56-4.6-10.124-10.16-10.124-4.133 0-7.872 2.522-9.42 6.354l-12.42 31c-.644 1.548-2.164 2.561-3.84 2.561-2.26 0-4.128-1.841-4.16-4.101v-19.31c4.155-1.307 7-5.184 7-9.539 0-5.486-4.514-10-10-10s-10 4.514-10 10c0 4.355 2.845 8.232 7 9.539v19.3c.02 5.56 4.6 10.124 10.16 10.124 4.133 0 7.872-2.522 9.42-6.354l12.4-31c.644-1.548 2.164-2.561 3.84-2.561 2.26 0 4.128 1.841 4.16 4.101v19.31c-4.147 1.314-6.983 5.19-6.98 9.54zm-30-36c2.194 0 4 1.806 4 4s-1.806 4-4 4-4-1.806-4-4 1.806-4 4-4zm40 40c-2.194 0-4-1.806-4-4s1.806-4 4-4 4 1.806 4 4-1.806 4-4 4z" fill="#aaa" fill-rule="nonzero" transform="translate(-20 -20)"/></svg>