<svg clip-rule="evenodd" fill-rule="evenodd" stroke-linejoin="round" stroke-miterlimit="2" viewBox="0 0 100 100" xmlns="http://www.w3.org/2000/svg"><path d="m50 0c-27.6 0-50 22.4-50 50s22.4 50 50 50 50-22.4 50-50-22.4-50-50-50zm0 96.3c-25.5 0-46.3-20.8-46.3-46.3s20.8-46.3 46.3-46.3 46.3 20.8 46.3 46.3-20.8 46.3-46.3 46.3z" fill-rule="nonzero"/><path d="m50 40.1c-1 0-1.9.8-1.9 1.9v31.5c0 1 .8 1.9 1.9 1.9s1.9-.8 1.9-1.9v-31.5c0-1-.9-1.9-1.9-1.9z" fill-rule="nonzero"/><circle cx="50" cy="30.4" r="3.2"/></svg>