<svg clip-rule="evenodd" fill-rule="evenodd" stroke-linejoin="round" stroke-miterlimit="2" viewBox="0 0 20 25" xmlns="http://www.w3.org/2000/svg"><path d="m29.19 26.93c-.179-.278-.295-.592-.34-.92-.05-.381-.222-.735-.49-1.01-.058-.053-.122-.1-.19-.14-.059-.038-.123-.068-.19-.09.394-1.237.33-2.576-.18-3.77-.522-1.279-1.259-2.46-2.18-3.49-.916-.893-1.472-2.094-1.56-3.37.02-2.14.24-6.14-3.56-6.14h-.5c-4.24.34-3.11 4.82-3.17 6.32-.045 1.084-.414 2.129-1.06 3-1.166 1.338-2.087 2.872-2.72 4.53-.291.799-.39 1.655-.29 2.5-.042.031-.079.068-.11.11-.26.27-.45.61-.67.84-.232.184-.502.313-.79.38-.368.104-.68.348-.87.68-.093.179-.137.379-.13.58-.01.183-.01.367 0 .55.071.33.071.67 0 1-.214.481-.21 1.032.01 1.51.207.327.554.542.94.58.95.063 1.886.262 2.78.59l.08-.17-.07.14c.793.455 1.718.624 2.62.48.532-.102.986-.451 1.22-.94.58 0 1.23-.26 2.26-.31.7-.06 1.58.25 2.58.19.03.107.07.211.12.31.318.739 1.078 1.196 1.88 1.13.899-.114 1.714-.587 2.26-1.31l-.12-.1.12.1c.703-.635 1.512-1.143 2.39-1.5.347-.159.591-.483.65-.86-.049-.542-.308-1.044-.72-1.4zm-9.36-14.07c-.001-.263.057-.523.17-.76.089-.226.237-.423.43-.57.172-.133.383-.207.6-.21.211-.002.416.068.58.2.199.142.354.336.45.56.109.231.164.484.16.74.003.265-.051.528-.16.77-.053.129-.124.25-.21.36h-.09l-.29-.12-.22-.07c.074-.064.138-.138.19-.22.053-.134.081-.276.08-.42.011-.136-.01-.273-.06-.4-.031-.121-.093-.231-.18-.32-.071-.074-.168-.117-.27-.12-.096-.002-.19.034-.26.1-.094.081-.166.184-.21.3-.055.134-.085.276-.09.42-.01.08-.01.16 0 .24-.195-.092-.4-.162-.61-.21-.005-.073-.005-.147 0-.22zm-2.58.07c-.015-.226.012-.454.08-.67.05-.19.151-.362.29-.5.108-.121.258-.197.42-.21.151.002.297.059.41.16.149.123.266.281.34.46.091.209.142.433.15.66.01.096.01.194 0 .29h-.09c-.138.045-.269.109-.39.19.01-.086.01-.174 0-.26-.004-.114-.031-.227-.08-.33-.034-.094-.089-.18-.16-.25-.053-.045-.12-.069-.19-.07-.076.007-.146.047-.19.11-.058.081-.098.173-.12.27-.016.116-.016.234 0 .35.009.114.036.225.08.33.037.095.096.18.17.25l-.17.14-.14.1c-.119-.119-.211-.262-.27-.42-.091-.206-.145-.426-.16-.65zm.19 1.47.48-.36.18-.13c.233-.256.52-.458.84-.59.151-.053.31-.08.47-.08.438.021.862.166 1.22.42.341.174.696.321 1.06.44.199.068.368.202.48.38.065.15.065.32 0 .47-.212.423-.6.731-1.06.84-.27.122-.528.269-.77.44-.298.188-.648.279-1 .26-.155-.004-.308-.038-.45-.1-.116-.051-.223-.118-.32-.2-.188-.184-.393-.351-.61-.5-.315-.14-.563-.399-.69-.72-.082-.206-.011-.443.17-.57zm.16 15.65c-.011.647-.49 1.199-1.13 1.3-.829.127-1.677-.036-2.4-.46-.919-.352-1.887-.558-2.87-.61-.288-.026-.551-.176-.72-.41-.121-.413-.078-.858.12-1.24.085-.372.085-.758 0-1.13-.099-.306-.099-.634 0-.94.148-.263.398-.455.69-.53.341-.073.657-.231.92-.46.26-.27.45-.61.67-.85.16-.202.402-.323.66-.33h.17c.418.111.776.38 1 .75l.91 1.67c.352.581.753 1.129 1.2 1.64.409.437.666.995.73 1.59zm-.08-1.22c-.12-.19-.26-.37-.4-.56l-.27-.35c.158.004.315-.027.46-.09.146-.064.26-.183.32-.33.078-.423-.052-.859-.35-1.17-.495-.615-1.103-1.131-1.79-1.52-.544-.31-.956-.808-1.16-1.4-.145-.54-.145-1.11 0-1.65.272-.982.701-1.914 1.27-2.76.1-.08 0 .15-.41 1s-1.15 2.5-.13 3.86c.038-.992.259-1.968.65-2.88.57-1.28 1.75-3.51 1.85-5.28.093.069.19.132.29.19.206.148.403.308.59.48.243.208.55.328.87.34h.12c.353-.007.698-.107 1-.29.233-.163.481-.303.74-.42.397-.13.746-.378 1-.71.458 1.545 1.071 3.039 1.83 4.46.517.938.888 1.95 1.1 3 .175-.003.35.017.52.06.389-1.432-.034-2.968-1.1-4-.22-.22-.23-.31-.12-.31.792.771 1.347 1.754 1.6 2.83.135.548.135 1.122 0 1.67l.21.09c1 .5 1.42.94 1.23 1.54h-.19c.15-.47-.19-.82-1.07-1.22s-1.65-.37-1.78.45v.13l-.21.1c-.427.261-.719.696-.8 1.19-.127.615-.194 1.242-.2 1.87-.067.462-.174.917-.32 1.36-1.531 1.227-3.683 1.356-5.35.32zm11.57.07c-.913.365-1.748.902-2.46 1.58-.49.639-1.205 1.069-2 1.2-.684.098-1.354-.276-1.63-.91-.174-.557-.152-1.157.06-1.7.211-.618.365-1.254.46-1.9.013-.611.08-1.22.2-1.82.06-.41.293-.774.64-1h.05c-.025.598.328 1.15.88 1.38.686.043 1.353-.239 1.8-.76h.21c.306-.042.616.049.85.25.219.245.355.553.39.88.07.381.227.741.46 1.05.49.54.65.91.63 1.15s-.22.41-.54.6zm-11.47-13.9c-.16-.13-.14-.31-.08-.31s.14.17.21.23c.114.117.234.227.36.33.327.279.74.438 1.17.45.498-.047.978-.211 1.4-.48.226-.136.443-.287.65-.45.16-.12.15-.26.28-.24s0 .15-.15.31c-.212.185-.443.346-.69.48-.449.286-.96.461-1.49.51-.476-.019-.93-.207-1.28-.53-.131-.094-.258-.194-.38-.3z" fill-rule="nonzero" transform="translate(-10.032 -8)"/></svg>