<svg clip-rule="evenodd" fill-rule="evenodd" stroke-linejoin="round" stroke-miterlimit="2" viewBox="0 0 46 48" xmlns="http://www.w3.org/2000/svg"><g transform="translate(-2.298 -1.43)"><path d="m33.921 7.762c0 .945.761 1.711 1.699 1.711.932 0 1.691-.766 1.691-1.711 0-.944-.76-1.713-1.691-1.713-.938 0-1.699.768-1.699 1.713z" fill-rule="nonzero"/><path d="m41.377 15.213c0 .941.761 1.711 1.695 1.711s1.698-.77 1.698-1.711c0-.945-.764-1.714-1.698-1.714s-1.695.769-1.695 1.714z" fill-rule="nonzero"/><ellipse cx="45.868" cy="25.431" rx="1.834" ry="1.854"/><ellipse cx="43.073" cy="35.672" rx="2.186" ry="2.21"/><path d="m33.433 43.215c0 1.219.979 2.213 2.188 2.213 1.205 0 2.184-.994 2.184-2.213s-.979-2.21-2.184-2.21c-1.21 0-2.188.991-2.188 2.21z" fill-rule="nonzero"/><path d="m23.081 46.117c0 1.353 1.088 2.452 2.429 2.452 1.337 0 2.425-1.1 2.425-2.452 0-1.355-1.088-2.451-2.425-2.451-1.342 0-2.429 1.096-2.429 2.451z" fill-rule="nonzero"/><ellipse cx="15.369" cy="43.215" rx="2.426" ry="2.455"/><g fill-rule="nonzero"><path d="m5.063 35.672c0 1.545 1.241 2.797 2.765 2.797 1.529 0 2.768-1.252 2.768-2.797 0-1.539-1.239-2.791-2.768-2.791-1.524 0-2.765 1.252-2.765 2.791z"/><path d="m2.298 25.431c0 1.542 1.239 2.794 2.765 2.794 1.529 0 2.765-1.252 2.765-2.794 0-1.546-1.236-2.794-2.765-2.794-1.526 0-2.765 1.248-2.765 2.794z"/><path d="m4.641 15.213c0 1.778 1.426 3.22 3.187 3.22 1.763 0 3.192-1.441 3.192-3.22 0-1.781-1.429-3.226-3.192-3.226-1.761 0-3.187 1.445-3.187 3.226z"/><path d="m12.18 7.762c0 1.781 1.427 3.224 3.189 3.224 1.76 0 3.191-1.442 3.191-3.224 0-1.775-1.432-3.223-3.191-3.223-1.762 0-3.189 1.447-3.189 3.223z"/><path d="m22.035 4.938c0 1.936 1.556 3.506 3.474 3.506 1.914 0 3.468-1.57 3.468-3.506 0-1.938-1.555-3.508-3.468-3.508-1.918.001-3.474 1.57-3.474 3.508z"/></g></g></svg>