<?xml version='1.0' encoding='utf-8'?>
<svg xmlns="http://www.w3.org/2000/svg" width="24" height="24" viewBox="0 0 24 24" fill="none">
<path d="M5.64645 20.8536C5.84171 21.0488 6.15829 21.0488 6.35355 20.8536L9.53553 17.6716C9.7308 17.4763 9.7308 17.1597 9.53553 16.9645C9.34027 16.7692 9.02369 16.7692 8.82843 16.9645L6 19.7929L3.17157 16.9645C2.97631 16.7692 2.65973 16.7692 2.46447 16.9645C2.2692 17.1597 2.2692 17.4763 2.46447 17.6716L5.64645 20.8536ZM17.6464 20.8536C17.8417 21.0488 18.1583 21.0488 18.3536 20.8536L21.5355 17.6716C21.7308 17.4763 21.7308 17.1597 21.5355 16.9645C21.3403 16.7692 21.0237 16.7692 20.8284 16.9645L18 19.7929L15.1716 16.9645C14.9763 16.7692 14.6597 16.7692 14.4645 16.9645C14.2692 17.1597 14.2692 17.4763 14.4645 17.6716L17.6464 20.8536ZM6.5 20.5V13.5H5.5V20.5H6.5ZM9 11H15V10H9V11ZM17.5 13.5V20.5H18.5V13.5H17.5ZM15 11C16.3807 11 17.5 12.1193 17.5 13.5H18.5C18.5 11.567 16.933 10 15 10V11ZM6.5 13.5C6.5 12.1193 7.61929 11 9 11V10C7.067 10 5.5 11.567 5.5 13.5H6.5Z" fill="#437875" class="cfill" />
<path d="M12 10L12 4" stroke="#437875" stroke-linecap="round" class="cstroke" />
</svg>
