<?xml version='1.0' encoding='utf-8'?>
<svg xmlns="http://www.w3.org/2000/svg" clip-rule="evenodd" fill-rule="evenodd" stroke-linejoin="round" stroke-miterlimit="2" viewBox="0 0 64 64"><g fill-rule="nonzero" transform="translate(-1 -1)"><path d="m64 32h-3c-.5-14.2-12-26.4-27-27v-3c0-.6-.4-1-1-1s-1 .4-1 1v3c-14.7.6-26.4 12.3-27 27h-3c-.6 0-1 .4-1 1s.4 1 1 1h3c.5 14.2 12 26.4 27 27v3c0 .6.4 1 1 1s1-.4 1-1v-3c14.7-.5 26.4-12.3 27-27h3c.6 0 1-.4 1-1s-.4-1-1-1zm-30 27v-3c0-.6-.4-1-1-1s-1 .4-1 1v3c-13.8-.5-24.5-11.9-25-25h3c.6 0 1-.4 1-1s-.4-1-1-1h-3c.6-13.5 11.3-24.4 25-24.9v2.9c0 .6.4 1 1 1s1-.4 1-1v-3c13.9.5 24.5 11.9 25 25h-3c-.6 0-1 .4-1 1s.4 1 1 1h3c-.6 13.6-11.4 24.4-25 25z" /><path d="m47.1 42.1c-.2-.3-.5-.5-.8-.5h-2.9c.1-.2.1-.5.2-.7.3-1.4.5-3 .3-4.6h1.9l1.4 2.2c.3.5.9.6 1.4.3s.6-.9.3-1.4l-1.7-2.7c-.2-.3-.5-.5-.8-.5h-2.8c-.4-1.4-.9-2.7-1.8-3.9l3.5-2.9c.2-.1.3-.3.3-.6l1-4.6c.1-.5-.2-1.1-.8-1.2-.5-.1-1.1.2-1.2.8l-1 4.3-3.2 2.7c-.5-.5-1.1-1-1.8-1.4.4-.7.7-1.5.7-2.5 0-2.5-1.4-4.7-3.6-5.7.7-.7 1.6-1.1 2.6-1.3.5-.1.8-.5.8-1 0-.6-.5-1.1-1.1-1-1.8.3-3.4 1.3-4.5 2.7h-.9c-1.1-1.5-2.7-2.4-4.5-2.7-.6-.1-1.1.4-1.1 1 0 .5.4.9.8 1 1 .2 1.9.6 2.7 1.3-2.2 1-3.5 3-3.6 5.3-.1 1 .2 2 .8 2.8-.7.4-1.4 1-1.9 1.5l-3.3-2.7-1-4.3c-.1-.5-.7-.9-1.2-.8s-.9.7-.8 1.2l1 4.6c0 .2.2.4.3.5l3.5 2.9c-.9 1.2-1.4 2.6-1.8 3.9h-2.8c-.3 0-.7.2-.8.5l-1.7 2.7c-.3.5-.2 1.1.3 1.4s1.1.2 1.4-.3l1.4-2.2h1.9c-.1 1.6 0 3.1.3 4.6.1.2.1.5.2.7h-2.9c-.3 0-.7.2-.8.5l-1.7 2.7c-.3.5-.2 1.1.3 1.4s1.1.2 1.4-.3l1.4-2.2h3.1c1.8 3.9 5.4 6.3 9.6 6.3s7.8-2.4 9.6-6.4l3.1.1 1.4 2.2c.3.5.9.6 1.4.3s.6-.9.3-1.4zm-14.1-21.3c2.5 0 4.2 2 4.2 4.2 0 .8-.2 1.4-.7 1.8-1.5 1.4-8 1.8-7.7-2.1.1-2.2 2-3.9 4.2-3.9zm8.5 19.7c-.8 3.5-3.5 7.5-8.5 7.5s-7.7-4-8.5-7.4c-1-4 .1-9.1 4.6-11.6 1.2.8 2.3.9 3.9.9 1.7 0 3-.3 4.1-.9 4.3 2.4 5.4 7.5 4.4 11.5z" /></g></svg>