<?xml version='1.0' encoding='utf-8'?>
<svg xmlns="http://www.w3.org/2000/svg" width="100%" height="100%" viewBox="0 0 263 263" version="1.1" xml:space="preserve" style="fill-rule:evenodd;clip-rule:evenodd;stroke-linecap:round;stroke-linejoin:round;stroke-miterlimit:1.5;">
    <g transform="matrix(1,0,0,1,-105,0.0039062)">
        <rect x="105" y="196.87" width="65.625" height="65.625" style="fill-rule:nonzero;" />
    </g>
    <g transform="matrix(1,0,0,1,-105,0.0039062)">
        <rect x="170.62" y="131.25" width="65.625" height="65.625" style="fill-rule:nonzero;" />
    </g>
    <g transform="matrix(1,0,0,1,-105,0.0039062)">
        <rect x="236.25" y="65.621" width="65.625" height="65.625" style="fill-rule:nonzero;" />
    </g>
    <g transform="matrix(1,0,0,1,-105,0.0039062)">
        <rect x="236.25" y="196.87" width="65.625" height="65.625" style="fill-rule:nonzero;" />
    </g>
    <g transform="matrix(1,0,0,1,-105,0.0039062)">
        <rect x="301.88" y="131.25" width="65.625" height="65.625" style="fill-rule:nonzero;" />
    </g>
    <g transform="matrix(1,0,0,1,-105,0.0039062)">
        <rect x="301.88" y="-0.004" width="65.625" height="65.625" style="fill-rule:nonzero;" />
    </g>
    <g transform="matrix(1,0,0,1,-105,0.0039062)">
        <rect x="105" y="65.621" width="65.625" height="65.625" style="fill-rule:nonzero;" />
    </g>
    <g transform="matrix(1,0,0,1,-105,0.0039062)">
        <rect x="170.62" y="-0.004" width="65.625" height="65.625" style="fill-rule:nonzero;" />
    </g>
    <g transform="matrix(1.15726,0,0,1.14286,-41.2818,-37.5)">
        <rect x="35.672" y="32.813" width="226.828" height="229.686" style="fill:rgb(235,235,235);fill-opacity:0;stroke:black;stroke-width:6.96px;" />
    </g>
</svg>