<?xml version='1.0' encoding='utf-8'?>
<svg xmlns="http://www.w3.org/2000/svg" width="24" height="24" viewBox="0 0 24 24" fill="none">
<g clip-path="url(#clip0_1327_5704)">
<path d="M6.97925 4.30384C7.15788 3.99444 7.48801 3.80384 7.84527 3.80384L16.1547 3.80384C16.5119 3.80384 16.8421 3.99444 17.0207 4.30384L21.1754 11.5C21.354 11.8094 21.354 12.1906 21.1754 12.5L17.0207 19.6961C16.8421 20.0055 16.5119 20.1961 16.1547 20.1961L7.84527 20.1961C7.48801 20.1961 7.15788 20.0055 6.97925 19.6961L2.82455 12.5C2.64592 12.1906 2.64592 11.8094 2.82455 11.5L6.97925 4.30384Z" stroke="#437875" class="cstroke" />
<path d="M11.6553 7C11.3914 7 11.1775 7.20351 11.1775 7.45455V11.3065C11.1775 11.4385 11.0705 11.5455 10.9385 11.5455C10.8066 11.5455 10.6996 11.4385 10.6996 11.3065V8.36364C10.6996 8.1126 10.4857 7.90909 10.2218 7.90909C9.95792 7.90909 9.744 8.1126 9.744 8.36364V13.475L8.90095 11.9479C8.77825 11.7256 8.48939 11.6401 8.25576 11.7568C8.02212 11.8735 7.93219 12.1483 8.05488 12.3706L9.72897 15.4031L9.744 15.3956V15.4225L9.98841 15.7923C10.4851 16.5439 11.3528 17 12.286 17C13.7849 17 15 15.8441 15 14.4182V9.27273C15 9.02169 14.7861 8.81818 14.5222 8.81818C14.2583 8.81818 14.0444 9.02169 14.0444 9.27273V11.3065C14.0444 11.4385 13.9374 11.5455 13.8055 11.5455C13.6735 11.5455 13.5665 11.4385 13.5665 11.3065V8.36364C13.5665 8.1126 13.3526 7.90909 13.0887 7.90909C12.8248 7.90909 12.6109 8.1126 12.6109 8.36364V11.3065C12.6109 11.4385 12.5039 11.5455 12.372 11.5455C12.2401 11.5455 12.1331 11.4385 12.1331 11.3065V7.45455C12.1331 7.20351 11.9192 7 11.6553 7Z" fill="#437875" class="cfill" />
</g>
<defs>
<clipPath id="clip0_1327_5704">
<rect width="24" height="24" fill="white" class="cfill" />
</clipPath>
</defs>
</svg>
