<?xml version='1.0' encoding='utf-8'?>
<svg xmlns="http://www.w3.org/2000/svg" width="24" height="24" viewBox="0 0 24 24" fill="none">
<path d="M5 4V8C5 9.65685 6.34315 11 8 11H16C17.6569 11 19 9.65685 19 8V4" stroke="#437875" stroke-linecap="round" class="cstroke" />
<circle cx="12" cy="11" r="2" fill="#437875" stroke="#437875" class="cfill cstroke" />
<path d="M11.6464 20.3536C11.8417 20.5488 12.1583 20.5488 12.3536 20.3536L15.5355 17.1716C15.7308 16.9763 15.7308 16.6597 15.5355 16.4645C15.3403 16.2692 15.0237 16.2692 14.8284 16.4645L12 19.2929L9.17157 16.4645C8.97631 16.2692 8.65973 16.2692 8.46447 16.4645C8.2692 16.6597 8.2692 16.9763 8.46447 17.1716L11.6464 20.3536ZM11.5 13L11.5 20L12.5 20L12.5 13L11.5 13Z" fill="#437875" class="cfill" />
</svg>
