<?xml version='1.0' encoding='utf-8'?>
<svg xmlns="http://www.w3.org/2000/svg" width="24" height="24" viewBox="0 0 24 24" fill="none">
<path d="M2.64645 11.6464C2.45118 11.8417 2.45118 12.1583 2.64645 12.3536L5.82843 15.5355C6.02369 15.7308 6.34027 15.7308 6.53553 15.5355C6.7308 15.3403 6.7308 15.0237 6.53553 14.8284L3.70711 12L6.53553 9.17157C6.7308 8.97631 6.7308 8.65973 6.53553 8.46447C6.34027 8.2692 6.02369 8.2692 5.82843 8.46447L2.64645 11.6464ZM9 11.5L3 11.5L3 12.5L9 12.5L9 11.5Z" fill="#437875" class="cfill" />
<path d="M21.3536 11.6464C21.5488 11.8417 21.5488 12.1583 21.3536 12.3536L18.1716 15.5355C17.9763 15.7308 17.6597 15.7308 17.4645 15.5355C17.2692 15.3403 17.2692 15.0237 17.4645 14.8284L20.2929 12L17.4645 9.17157C17.2692 8.97631 17.2692 8.65973 17.4645 8.46447C17.6597 8.2692 17.9763 8.2692 18.1716 8.46447L21.3536 11.6464ZM15 11.5L21 11.5L21 12.5L15 12.5L15 11.5Z" fill="#437875" class="cfill" />
<path d="M9.5 5L9.5 19" stroke="#437875" stroke-linecap="round" class="cstroke" />
<path d="M14.5 5L14.5 19" stroke="#437875" stroke-linecap="round" class="cstroke" />
</svg>
