<?xml version='1.0' encoding='utf-8'?>
<svg xmlns="http://www.w3.org/2000/svg" width="24" height="24" viewBox="0 0 24 24" fill="none">
<path d="M7.78409 18.0113H16.1364C17.8936 18.0113 19.3182 16.5868 19.3182 14.8295V14.8295C19.3182 13.0722 17.8936 11.6477 16.1364 11.6477H8.18182C6.42455 11.6477 5 10.2231 5 8.46588V8.46588C5 6.70861 6.42455 5.28406 8.18182 5.28406L17.7273 5.28406" stroke="#437875" class="cstroke" />
<path d="M8.97727 18.0113C8.97727 19.1096 8.08693 20 6.98864 20C5.89034 20 5 19.1096 5 18.0113C5 16.913 5.89034 16.0227 6.98864 16.0227C8.08693 16.0227 8.97727 16.913 8.97727 18.0113Z" stroke="#437875" class="cstroke" />
<path d="M15.3409 2.5L17.5625 4.72162C17.8731 5.03226 17.8731 5.53592 17.5625 5.84656L15.3409 8.06818" stroke="#437875" stroke-linecap="round" class="cstroke" />
</svg>
