<?xml version='1.0' encoding='utf-8'?>
<svg xmlns="http://www.w3.org/2000/svg" width="24" height="24" viewBox="0 0 24 24" fill="none">
<path d="M5 8L12 4L19 8L12 12L5 8Z" stroke="#A09ABE" stroke-linejoin="bevel" class="cstroke" />
<path d="M12.4 9.2C13.0592 9.52962 13.0592 10.4704 12.4 10.8C12.1482 10.9259 11.8518 10.9259 11.6 10.8C10.9408 10.4704 10.9408 9.52962 11.6 9.2C11.8518 9.0741 12.1482 9.0741 12.4 9.2Z" fill="#A09ABE" class="cfill" />
<path d="M15.4 7.2C16.0592 7.52962 16.0592 8.47038 15.4 8.8C15.1482 8.9259 14.8518 8.9259 14.6 8.8C13.9408 8.47038 13.9408 7.52962 14.6 7.2C14.8518 7.0741 15.1482 7.0741 15.4 7.2Z" fill="#A09ABE" class="cfill" />
<path d="M9.4 7.2C10.0592 7.52962 10.0592 8.47038 9.4 8.8C9.14819 8.9259 8.85181 8.9259 8.6 8.8C7.94076 8.47038 7.94076 7.52962 8.6 7.2C8.85181 7.0741 9.14819 7.0741 9.4 7.2Z" fill="#A09ABE" class="cfill" />
<path d="M12.4 5.2C13.0592 5.52962 13.0592 6.47038 12.4 6.8C12.1482 6.9259 11.8518 6.9259 11.6 6.8C10.9408 6.47038 10.9408 5.52962 11.6 5.2C11.8518 5.0741 12.1482 5.0741 12.4 5.2Z" fill="#A09ABE" class="cfill" />
<path d="M12 19.8L19 15.8V8L12 12V19.8Z" stroke="#A09ABE" stroke-linejoin="bevel" class="cstroke" />
<path d="M12 19.8L5 15.8V8L12 12V19.8Z" stroke="#A09ABE" stroke-linejoin="bevel" class="cstroke" />
</svg>
