<?xml version='1.0' encoding='utf-8'?>
<svg xmlns="http://www.w3.org/2000/svg" width="24" height="24" viewBox="0 0 24 24" fill="none">
<path d="M11.6464 21.3536C11.8417 21.5488 12.1583 21.5488 12.3536 21.3536L15.5355 18.1716C15.7308 17.9763 15.7308 17.6597 15.5355 17.4645C15.3403 17.2692 15.0237 17.2692 14.8284 17.4645L12 20.2929L9.17157 17.4645C8.97631 17.2692 8.65973 17.2692 8.46447 17.4645C8.2692 17.6597 8.2692 17.9763 8.46447 18.1716L11.6464 21.3536ZM11.5 11L11.5 21L12.5 21L12.5 11L11.5 11Z" fill="#A09ABE" class="cfill" />
<path fill-rule="evenodd" clip-rule="evenodd" d="M7.43313 8.40841C7.78498 6.20365 9.69619 4.51868 12 4.51868C14.3038 4.51868 16.215 6.20365 16.5669 8.40841C16.5878 8.53984 16.6604 8.65749 16.7683 8.73529C16.8763 8.81309 17.0109 8.84463 17.1422 8.82291C17.2752 8.80092 17.4121 8.78943 17.552 8.78943C18.9269 8.78943 20.0415 9.90403 20.0415 11.279C20.0415 12.6539 18.9269 13.7685 17.552 13.7685C17.5349 13.7685 17.5179 13.7683 17.501 13.768C17.4894 13.7677 17.4778 13.7679 17.4663 13.7685L13.2203 13.7685V14.7685L17.491 14.7685L17.5077 14.7682L17.552 14.7685C19.4792 14.7685 21.0415 13.2062 21.0415 11.279C21.0415 9.35174 19.4792 7.78943 17.552 7.78943C17.5216 7.78943 17.4912 7.78982 17.461 7.79059C16.8551 5.33748 14.6404 3.51868 12 3.51868C9.35963 3.51868 7.14491 5.33748 6.539 7.79059C6.50876 7.78982 6.47843 7.78943 6.44802 7.78943C4.52081 7.78943 2.9585 9.35174 2.9585 11.279C2.9585 13.2062 4.52081 14.7685 6.44802 14.7685L6.4918 14.7682L6.50903 14.7685L10.7798 14.7685V13.7685L6.53428 13.7685C6.52257 13.7679 6.51081 13.7677 6.49901 13.768C6.48206 13.7683 6.46507 13.7685 6.44802 13.7685C5.0731 13.7685 3.9585 12.6539 3.9585 11.279C3.9585 9.90403 5.0731 8.78943 6.44802 8.78943C6.58794 8.78943 6.7248 8.80092 6.85781 8.82291C6.98912 8.84463 7.12367 8.81309 7.23166 8.73529C7.33964 8.65749 7.41216 8.53984 7.43313 8.40841Z" fill="#A09ABE" class="cfill" />
</svg>
