<?xml version='1.0' encoding='utf-8'?>
<svg xmlns="http://www.w3.org/2000/svg" width="24" height="24" viewBox="0 0 24 24" fill="none">
<path d="M6 5C6 4.44772 6.44772 4 7 4H15.0858C15.351 4 15.6054 4.10536 15.7929 4.29289L17.7071 6.20711C17.8946 6.39464 18 6.649 18 6.91421V19C18 19.5523 17.5523 20 17 20H7C6.44772 20 6 19.5523 6 19V5Z" stroke="#A09ABE" stroke-linecap="round" class="cstroke" />
<path d="M15 4V6C15 6.55228 15.4477 7 16 7H18" stroke="#A09ABE" stroke-linecap="round" class="cstroke" />
<g clip-path="url(#clip0_1327_5692)">
<path fill-rule="evenodd" clip-rule="evenodd" d="M13.5271 13.0982C13.9004 12.6315 14.1237 12.0394 14.1237 11.3951C14.1237 9.88822 12.9021 8.66663 11.3952 8.66663C9.88829 8.66663 8.66669 9.88822 8.66669 11.3951C8.66669 12.9021 9.88829 14.1237 11.3952 14.1237C12.0394 14.1237 12.6315 13.9004 13.0983 13.527L14.8158 15.2445C14.9342 15.3629 15.1262 15.3629 15.2446 15.2445C15.363 15.1261 15.363 14.9341 15.2446 14.8158L13.5271 13.0982ZM11.3952 13.5204C10.2215 13.5204 9.26998 12.5689 9.26998 11.3951C9.26998 10.2214 10.2215 9.26992 11.3952 9.26992C12.5689 9.26992 13.5204 10.2214 13.5204 11.3951C13.5204 12.5689 12.5689 13.5204 11.3952 13.5204Z" fill="#A09ABE" class="cfill" />
</g>
<defs>
<clipPath id="clip0_1327_5692">
<rect width="10" height="10" fill="white" transform="translate(7 7)" class="cfill" />
</clipPath>
</defs>
</svg>
