<?xml version='1.0' encoding='utf-8'?>
<svg xmlns="http://www.w3.org/2000/svg" width="24" height="24" viewBox="0 0 24 24" fill="none">
<path d="M12.3536 9.64645C12.1583 9.45118 11.8417 9.45118 11.6464 9.64645L8.46447 12.8284C8.2692 13.0237 8.2692 13.3403 8.46447 13.5355C8.65973 13.7308 8.97631 13.7308 9.17157 13.5355L12 10.7071L14.8284 13.5355C15.0237 13.7308 15.3403 13.7308 15.5355 13.5355C15.7308 13.3403 15.7308 13.0237 15.5355 12.8284L12.3536 9.64645ZM12.5 20L12.5 10L11.5 10L11.5 20L12.5 20Z" fill="#A09ABE" class="cfill" />
<path fill-rule="evenodd" clip-rule="evenodd" d="M7.44408 10.2665C7.7951 8.06704 9.70173 6.38611 12 6.38611C14.2983 6.38611 16.2049 8.06704 16.5559 10.2665C16.5769 10.398 16.6494 10.5156 16.7574 10.5934C16.8654 10.6712 17 10.7027 17.1313 10.681C17.2639 10.6591 17.4005 10.6476 17.54 10.6476C18.9114 10.6476 20.0231 11.7593 20.0231 13.1307C20.0231 14.502 18.9114 15.6137 17.54 15.6137C17.523 15.6137 17.506 15.6136 17.4891 15.6132C17.4777 15.613 17.4663 15.6132 17.455 15.6137L13.2176 15.6137V16.6137L17.4791 16.6137L17.4952 16.6135L17.54 16.6137C19.4637 16.6137 21.0231 15.0543 21.0231 13.1307C21.0231 11.207 19.4637 9.64762 17.54 9.64762C17.5099 9.64762 17.48 9.648 17.45 9.64876C16.845 7.20091 14.6349 5.38611 12 5.38611C9.36515 5.38611 7.155 7.20091 6.54998 9.64876C6.52009 9.648 6.49011 9.64762 6.46005 9.64762C4.53641 9.64762 2.97699 11.207 2.97699 13.1307C2.97699 15.0543 4.53641 16.6137 6.46005 16.6137L6.50411 16.6135L6.52089 16.6137L10.7825 16.6137V15.6137L6.54557 15.6137C6.53406 15.6132 6.5225 15.613 6.5109 15.6132C6.49398 15.6136 6.47704 15.6137 6.46005 15.6137C5.0887 15.6137 3.97699 14.502 3.97699 13.1307C3.97699 11.7593 5.0887 10.6476 6.46005 10.6476C6.5996 10.6476 6.7361 10.6591 6.86876 10.681C7.00008 10.7027 7.13462 10.6712 7.24261 10.5934C7.3506 10.5156 7.42311 10.3979 7.44408 10.2665Z" fill="#A09ABE" class="cfill" />
</svg>
