<?xml version='1.0' encoding='utf-8'?>
<svg xmlns="http://www.w3.org/2000/svg" width="24" height="24" viewBox="0 0 24 24" fill="none">
<path d="M6 5C6 4.44772 6.44772 4 7 4H15.0858C15.351 4 15.6054 4.10536 15.7929 4.29289L17.7071 6.20711C17.8946 6.39464 18 6.649 18 6.91421V19C18 19.5523 17.5523 20 17 20H7C6.44772 20 6 19.5523 6 19V5Z" stroke="#A09ABE" stroke-linecap="round" class="cstroke" />
<path d="M15 4V6C15 6.55228 15.4477 7 16 7H18" stroke="#A09ABE" stroke-linecap="round" class="cstroke" />
<g clip-path="url(#clip0_1327_5689)">
<path d="M13.6667 8.66663L15.1398 10.1398L10.9414 14.3382L8.80533 15.0011L9.46824 12.8651L13.6667 8.66663Z" stroke="#A09ABE" stroke-width="0.5" stroke-linecap="round" class="cstroke" />
<line x1="12.5755" y1="9.8657" x2="14.0486" y2="11.3388" stroke="#A09ABE" stroke-width="0.5" />
</g>
<defs>
<clipPath id="clip0_1327_5689">
<rect width="10" height="10" fill="white" transform="translate(7 7)" class="cfill" />
</clipPath>
</defs>
</svg>
