<?xml version="1.0" encoding="utf-8"?>
<svg fill="none" height="32" viewBox="0 0 32 32" width="32" xmlns="http://www.w3.org/2000/svg">
<g clip-path="url(#clip0_2529_17810)">
<path class="cfill" clip-rule="evenodd" d="M23.9998 17.7777H7.99983V24.8889H23.9998V17.7777ZM6.22205 16V26.6667H25.7776V16H6.22205Z" fill="#E84560" fill-rule="evenodd"/>
<path class="cfill" clip-rule="evenodd" d="M24.8887 22.2217H6.22205V20.4438H24.8887V22.2217Z" fill="#E84560" fill-rule="evenodd"/>
<path class="cfill" clip-rule="evenodd" d="M15.111 25.7779V21.3335H16.8887V25.7779H15.111Z" fill="#E84560" fill-rule="evenodd"/>
<path class="cfill" clip-rule="evenodd" d="M11.0707 20.9291V16.0806H12.8485V20.9291H11.0707Z" fill="#E84560" fill-rule="evenodd"/>
<path class="cfill" clip-rule="evenodd" d="M18.828 20.9291V16.0806H20.6059V20.9291H18.828Z" fill="#E84560" fill-rule="evenodd"/>
<path class="cfill cstroke" clip-rule="evenodd" d="M10.754 10.7386C10.6777 11.1336 10.6665 11.5555 10.6665 12.0742C10.6665 15.2244 13.0542 17.7779 15.9998 17.7779C18.9455 17.7779 21.3331 16.0002 21.3331 12.4446C21.3331 11.4565 21.3331 11.0863 21.2559 10.7329C21.1939 10.4491 21.082 10.1762 20.8802 9.60276C20.8569 9.53674 20.8325 9.46673 20.8069 9.39225C20.6995 9.08107 20.5703 8.69201 20.4148 8.1904C20.3678 8.03882 20.3184 7.87697 20.2665 7.70387C19.3681 7.97776 19.234 8.7171 19.1256 9.31485C19.0991 9.4609 19.0742 9.5985 19.04 9.7188C18.9339 10.092 18.7389 10.2986 18.1331 10.0742C17.3487 9.63845 16.5643 8.72554 16.2041 7.20977C16.0745 6.66436 15.9998 6.04088 15.9998 5.3335C15.2257 5.64565 14.6765 6.06773 14.2886 6.54066C13.8131 7.12048 13.5802 7.77675 13.473 8.40063C13.4307 8.6469 13.408 8.88811 13.3976 9.11759C13.3774 9.56724 13.4048 9.97184 13.4258 10.281C13.4299 10.3419 13.4338 10.3991 13.437 10.4522C13.4384 10.4757 13.4397 10.4985 13.4408 10.5203C13.4597 10.888 13.4317 11.0201 13.1866 10.758C13.0471 10.6438 12.9193 10.5277 12.8026 10.4121C12.5246 10.1369 12.309 9.86466 12.1466 9.62809C11.8529 9.20016 11.7332 8.88906 11.7332 8.88906C11.6949 8.93483 11.6579 8.97987 11.6223 9.02423C11.1004 9.67441 10.862 10.1797 10.754 10.7386ZM12.4584 12.4314C12.625 14.5264 14.2447 16.0002 15.9998 16.0002C17.1251 16.0002 17.9958 15.6628 18.5668 15.1369C19.1137 14.6332 19.5554 13.802 19.5554 12.4446C19.5554 12.1338 19.5544 11.8987 19.5524 11.7189C19.3077 11.839 19.0404 11.9126 18.7611 11.9364C18.2724 11.978 17.8363 11.8601 17.5157 11.7413L17.3885 11.6942L17.2698 11.6283C16.4331 11.1634 15.7031 10.4313 15.1675 9.45196C15.1674 9.67292 15.1806 9.86699 15.1946 10.0728C15.2036 10.2045 15.2129 10.3411 15.2192 10.4926C15.2233 10.5913 15.2287 10.761 15.2115 10.941C15.2027 11.0324 15.1834 11.1829 15.1308 11.356C15.0829 11.5138 14.9674 11.8266 14.6838 12.119C14.3489 12.4641 13.8827 12.6717 13.3789 12.673C12.9503 12.6741 12.6306 12.5258 12.4739 12.44C12.4687 12.4371 12.4635 12.4343 12.4584 12.4314Z" fill="#E84560" fill-rule="evenodd" stroke="#E84560" stroke-width="0.112281"/>
</g>
<defs>
<clipPath id="clip0_2529_17810">
<rect class="cfill" fill="white" height="21.3333" transform="translate(5.33337 5.3335)" width="21.3333"/>
</clipPath>
</defs>
</svg>