<?xml version="1.0" encoding="utf-8"?>
<svg fill="none" height="32" viewBox="0 0 32 32" width="32" xmlns="http://www.w3.org/2000/svg">
<g clip-path="url(#clip0_2529_17801)">
<path class="cfill" d="M26.1334 19.5522H5.8667V25.9522H26.1334V19.5522ZM7.68003 24.1389V21.3656H24.32V24.1389H7.68003Z" fill="#E84560"/>
<path class="cfill" d="M12.0948 11.9895L10.3978 12.0823C9.97216 12.1058 9.57323 12.2807 9.27349 12.5698C8.95456 12.8759 8.79989 13.2567 8.79989 13.6428C8.79989 14.029 8.95456 14.4098 9.27349 14.7159C9.59349 15.0231 10.0244 15.2002 10.4948 15.2002H20.6826C20.9908 15.2002 21.3279 15.1362 21.6788 14.9996C21.9444 14.8887 22.1972 14.7212 22.4778 14.4524C22.9546 13.9938 23.1999 13.4039 23.1999 12.7564C23.1999 12.4482 23.1316 12.1218 23.0004 11.8114C22.8831 11.5362 22.7114 11.2855 22.4532 11.037C21.9316 10.5367 21.25 10.2647 20.5332 10.2647H19.3364L18.8372 9.17776C18.3082 8.02576 17.0474 7.20016 15.6266 7.20016C14.6751 7.20016 13.7972 7.55003 13.1338 8.1879C12.5215 8.7767 12.1908 9.52336 12.161 10.2914L12.0948 11.9895ZM22.3764 16.7319C21.8282 16.9474 21.2554 17.0668 20.6826 17.0668H10.4948C9.54869 17.0668 8.65163 16.7074 7.97963 16.061C7.30656 15.4146 6.93323 14.5527 6.93323 13.6428C6.93323 12.733 7.30656 11.8711 7.97963 11.2236C8.60256 10.6252 9.42389 10.2658 10.2954 10.2188C10.3455 8.9495 10.8938 7.75163 11.8399 6.84176C12.8618 5.86043 14.2068 5.3335 15.6266 5.3335C17.7439 5.3335 19.6863 6.55483 20.5332 8.39803C21.729 8.39803 22.8746 8.8535 23.746 9.6919C24.1695 10.0983 24.4938 10.5538 24.7178 11.0807C24.9418 11.6076 25.0666 12.1815 25.0666 12.7564C25.0666 13.9063 24.6186 14.9836 23.7716 15.7975C23.3482 16.205 22.8991 16.5164 22.3764 16.7319Z" fill="#E84560"/>
<path class="cfill" d="M17.0667 17.0664H15.4667V20.2664H17.0667V17.0664Z" fill="#E84560"/>
<path class="cfill" d="M21.7066 23.6585C22.2069 23.6585 22.6133 23.2521 22.6133 22.7519C22.6133 22.2516 22.2069 21.8452 21.7066 21.8452C21.2063 21.8452 20.7999 22.2516 20.7999 22.7519C20.7999 23.2521 21.2063 23.6585 21.7066 23.6585Z" fill="#E84560"/>
</g>
<defs>
<clipPath id="clip0_2529_17801">
<rect class="cfill" fill="white" height="21.3333" transform="translate(5.33337 5.3335)" width="21.3333"/>
</clipPath>
</defs>
</svg>