<?xml version="1.0" encoding="utf-8"?>
<svg fill="none" height="24" viewBox="0 0 24 24" width="24" xmlns="http://www.w3.org/2000/svg">
<path class="cstroke" d="M14.5 12.5C14.5 13.8807 13.3807 15 12 15C10.6193 15 9.5 13.8807 9.5 12.5C9.5 11.1193 10.6193 10 12 10C13.3807 10 14.5 11.1193 14.5 12.5Z" stroke="#E84560"/>
<path class="cstroke" d="M16.75 10C16.75 10.4142 16.4142 10.75 16 10.75C15.5858 10.75 15.25 10.4142 15.25 10C15.25 9.58579 15.5858 9.25 16 9.25C16.4142 9.25 16.75 9.58579 16.75 10Z" stroke="#E84560" stroke-width="0.5"/>
<path class="cstroke" d="M8.25 7.5H8.55902L8.69721 7.22361L8.89443 6.82918C9.14852 6.321 9.66791 6 10.2361 6H13.7263C14.2598 6 14.7531 6.28337 15.0219 6.74419L15.3181 7.25194L15.4628 7.5H15.75H16.5H17C17.8284 7.5 18.5 8.17157 18.5 9V16C18.5 16.8284 17.8284 17.5 17 17.5H7C6.17157 17.5 5.5 16.8284 5.5 16V9C5.5 8.17157 6.17157 7.5 7 7.5H7.5H8.25Z" stroke="#E84560"/>
</svg>