<?xml version="1.0" encoding="utf-8"?>
<svg fill="none" height="32" viewBox="0 0 32 32" width="32" xmlns="http://www.w3.org/2000/svg">
<g clip-path="url(#clip0_2529_17825)">
<path class="cfill" clip-rule="evenodd" d="M5.19998 8.1499C4.73098 8.1499 4.34998 8.5299 4.34998 8.9999V13.7139C4.34998 14.1829 4.73098 14.5639 5.19998 14.5639H9.99998C10.469 14.5639 10.85 14.1829 10.85 13.7139V8.9999C10.85 8.5299 10.469 8.1499 9.99998 8.1499H5.19998ZM6.04998 12.8639V9.8499H9.14998V12.8639H6.04998Z" fill="#E84560" fill-rule="evenodd"/>
<path class="cfill" clip-rule="evenodd" d="M22 8.1499C21.531 8.1499 21.15 8.5299 21.15 8.9999V13.7139C21.15 14.1829 21.531 14.5639 22 14.5639H26.8C27.269 14.5639 27.65 14.1829 27.65 13.7139V8.9999C27.65 8.5299 27.269 8.1499 26.8 8.1499H22ZM22.85 12.8639V9.8499H25.95V12.8639H22.85Z" fill="#E84560" fill-rule="evenodd"/>
<path class="cfill" clip-rule="evenodd" d="M14.976 18.0999H4V16.3999H28V18.0999H17.024L21.396 22.3929C21.642 22.6349 21.717 23.0019 21.587 23.3219C21.456 23.6409 21.145 23.8499 20.8 23.8499H11.2C10.855 23.8499 10.544 23.6409 10.413 23.3219C10.283 23.0019 10.358 22.6349 10.604 22.3929L14.976 18.0999ZM16 19.4769L18.721 22.1499H13.279L16 19.4769Z" fill="#E84560" fill-rule="evenodd"/>
</g>
<defs>
<clipPath id="clip0_2529_17825">
<rect class="cfill" fill="white" height="24" transform="translate(4 4)" width="24"/>
</clipPath>
</defs>
</svg>