<?xml version="1.0" encoding="utf-8"?>
<svg fill="none" height="32" viewBox="0 0 32 32" width="32" xmlns="http://www.w3.org/2000/svg">
<g clip-path="url(#clip0_2529_17829)">
<path class="cfill" d="M25.3333 13.8667V8H6.66663V13.8667H15.1111V18.9333H14.4888C13.9555 18.9333 13.5111 19.3778 13.5111 19.9111V20.5333H9.68885V22.2222H13.5111V22.8444C13.5111 23.3778 13.9555 23.8222 14.4888 23.8222H17.5111C18.0444 23.8222 18.4888 23.3778 18.4888 22.8444V22.2222H22.3111V20.5333H18.4888V19.9111C18.4888 19.3778 18.0444 18.9333 17.5111 18.9333H16.8888V13.8667H25.3333ZM16.9777 22.4889H15.0222V20.5333H16.9777V22.4889ZM8.17774 9.51111H23.8222V12.3556H8.17774V9.51111Z" fill="#E84560"/>
<path class="cfill" d="M21.3332 11.8222C21.8241 11.8222 22.2221 11.4242 22.2221 10.9333C22.2221 10.4424 21.8241 10.0444 21.3332 10.0444C20.8423 10.0444 20.4443 10.4424 20.4443 10.9333C20.4443 11.4242 20.8423 11.8222 21.3332 11.8222Z" fill="#E84560"/>
</g>
<defs>
<clipPath id="clip0_2529_17829">
<rect class="cfill" fill="white" height="18.6667" transform="translate(6.66663 6.6665)" width="18.6667"/>
</clipPath>
</defs>
</svg>
