<?xml version="1.0" encoding="utf-8"?>
<svg fill="none" height="32" viewBox="0 0 32 32" width="32" xmlns="http://www.w3.org/2000/svg">
<rect class="cstroke" height="5.33333" rx="1.33333" stroke="#E84560" stroke-linejoin="bevel" stroke-width="1.33333" width="21.3333" x="5.33337" y="18.6665"/>
<path class="cfill" d="M10.6666 21.3335C10.6666 21.8858 10.2189 22.3335 9.66663 22.3335C9.11434 22.3335 8.66663 21.8858 8.66663 21.3335C8.66663 20.7812 9.11434 20.3335 9.66663 20.3335C10.2189 20.3335 10.6666 20.7812 10.6666 21.3335Z" fill="#E84560"/>
<path class="cstroke" d="M21.3333 9.55556C21.3333 11.8451 18.3636 15.0486 16.8562 16.5271C16.376 16.9981 15.6239 16.9981 15.1437 16.5271C13.6364 15.0486 10.6666 11.8451 10.6666 9.55556C10.6666 6.48731 13.0544 4 16 4C18.9455 4 21.3333 6.48731 21.3333 9.55556Z" stroke="#E84560" stroke-linejoin="bevel" stroke-width="1.33333"/>
<path class="cfill" d="M17.6042 10.3918H16.4258V9.5096H17.6042C17.7648 9.5096 17.895 9.48248 17.9948 9.42822C18.0946 9.37397 18.1673 9.2991 18.2129 9.20361C18.2606 9.10596 18.2845 8.99637 18.2845 8.87484C18.2845 8.74463 18.2606 8.62419 18.2129 8.51351C18.1673 8.40283 18.0946 8.31386 17.9948 8.24658C17.895 8.17714 17.7648 8.14242 17.6042 8.14242H16.8555V11.9998H15.7129V7.26025H17.6042C17.9839 7.26025 18.3105 7.3297 18.584 7.46859C18.8596 7.60748 19.0712 7.79845 19.2188 8.0415C19.3663 8.28239 19.4401 8.558 19.4401 8.86833C19.4401 9.17432 19.3663 9.44124 19.2188 9.66911C19.0712 9.89697 18.8596 10.0749 18.584 10.203C18.3105 10.3288 17.9839 10.3918 17.6042 10.3918Z" fill="#E84560"/>
<path class="cfill" d="M14.9089 7.26025V11.9998H13.7695V7.26025H14.9089Z" fill="#E84560"/>
</svg>